<svg xmlns="http://www.w3.org/2000/svg" xmlns:xlink="http://www.w3.org/1999/xlink" viewBox="0 0 640 480"><defs><clipPath id="clip-path"><polygon points="376.172 224.377 296.656 172.283 296.656 17.628 376.172 17.628 376.172 224.377" style="fill:none"/></clipPath><clipPath id="clip-path-2"><polygon points="263.828 151.146 343.344 203.241 343.344 462.372 263.828 462.372 263.828 151.146" style="fill:none"/></clipPath></defs><g id="JENGAV"><g style="clip-path:url(#clip-path)"><rect x="296.65555" y="17.62774" width="79.51613" height="424.57036" style="fill:#3e3e3e;stroke:#fff;stroke-width:1.41732287406921px"/><line x1="376.17168" y1="17.62774" x2="376.17168" y2="442.1981" style="fill:none;stroke:#fff;stroke-width:1.4173228346456692px"/><line x1="362.91899" y1="17.62774" x2="362.91899" y2="442.1981" style="fill:none;stroke:#fff;stroke-width:1.4173228346456692px"/><line x1="349.6663" y1="17.62774" x2="349.6663" y2="442.1981" style="fill:none;stroke:#fff;stroke-width:1.4173228346456692px"/><line x1="336.41361" y1="17.62774" x2="336.41361" y2="442.1981" style="fill:none;stroke:#fff;stroke-width:1.4173228346456692px"/><line x1="323.16093" y1="17.62774" x2="323.16093" y2="442.1981" style="fill:none;stroke:#fff;stroke-width:1.4173228346456692px"/><line x1="309.90824" y1="17.62774" x2="309.90824" y2="442.1981" style="fill:none;stroke:#fff;stroke-width:1.4173228346456692px"/><line x1="296.65555" y1="17.62774" x2="296.65555" y2="442.1981" style="fill:none;stroke:#fff;stroke-width:1.4173228346456692px"/><line x1="376.17277" y1="442.19963" x2="296.66504" y2="442.19889" style="fill:none;stroke:#fff;stroke-width:1.4173228346456692px"/><line x1="376.17277" y1="415.66413" x2="296.66504" y2="415.66339" style="fill:none;stroke:#fff;stroke-width:1.4173228346456692px"/><line x1="376.17277" y1="389.12864" x2="296.66504" y2="389.1279" style="fill:none;stroke:#fff;stroke-width:1.4173228346456692px"/><line x1="376.17277" y1="362.59314" x2="296.66504" y2="362.5924" style="fill:none;stroke:#fff;stroke-width:1.4173228346456692px"/><line x1="376.17277" y1="336.05765" x2="296.66504" y2="336.05691" style="fill:none;stroke:#fff;stroke-width:1.4173228346456692px"/><line x1="376.17277" y1="309.52215" x2="296.66504" y2="309.52141" style="fill:none;stroke:#fff;stroke-width:1.4173228346456692px"/><line x1="376.17277" y1="282.98665" x2="296.66504" y2="282.98591" style="fill:none;stroke:#fff;stroke-width:1.4173228346456692px"/><line x1="376.17277" y1="256.45116" x2="296.66504" y2="256.45042" style="fill:none;stroke:#fff;stroke-width:1.4173228346456692px"/><line x1="376.17277" y1="229.91566" x2="296.66504" y2="229.91492" style="fill:none;stroke:#fff;stroke-width:1.4173228346456692px"/><line x1="376.17277" y1="203.38017" x2="296.66504" y2="203.37943" style="fill:none;stroke:#fff;stroke-width:1.4173228346456692px"/><line x1="376.17277" y1="176.84467" x2="296.66504" y2="176.84393" style="fill:none;stroke:#fff;stroke-width:1.4173228346456692px"/><line x1="376.17277" y1="150.30918" x2="296.66504" y2="150.30843" style="fill:none;stroke:#fff;stroke-width:1.4173228346456692px"/><line x1="376.17277" y1="123.77368" x2="296.66504" y2="123.77294" style="fill:none;stroke:#fff;stroke-width:1.4173228346456692px"/><line x1="376.17277" y1="97.23818" x2="296.66504" y2="97.23744" style="fill:none;stroke:#fff;stroke-width:1.4173228346456692px"/><line x1="376.17277" y1="70.70269" x2="296.66504" y2="70.70195" style="fill:none;stroke:#fff;stroke-width:1.4173228346456692px"/><line x1="376.17277" y1="44.16719" x2="296.66504" y2="44.16645" style="fill:none;stroke:#fff;stroke-width:1.4173228346456692px"/><line x1="376.17277" y1="17.6317" x2="296.66504" y2="17.63096" style="fill:none;stroke:#fff;stroke-width:1.4173228346456692px"/></g><g style="clip-path:url(#clip-path-2)"><rect x="263.81829" y="37.80111" width="79.51613" height="424.57036" style="fill:#3e3e3e;stroke:#fff;stroke-width:1.41732287406921px"/><line x1="343.33441" y1="37.80111" x2="343.33441" y2="462.37147" style="fill:none;stroke:#fff;stroke-width:1.4173228346456692px"/><line x1="330.08172" y1="37.80111" x2="330.08172" y2="462.37147" style="fill:none;stroke:#fff;stroke-width:1.4173228346456692px"/><line x1="316.82904" y1="37.80111" x2="316.82904" y2="462.37147" style="fill:none;stroke:#fff;stroke-width:1.4173228346456692px"/><line x1="303.57635" y1="37.80111" x2="303.57635" y2="462.37147" style="fill:none;stroke:#fff;stroke-width:1.4173228346456692px"/><line x1="290.32366" y1="37.80111" x2="290.32366" y2="462.37147" style="fill:none;stroke:#fff;stroke-width:1.4173228346456692px"/><line x1="277.07097" y1="37.80111" x2="277.07097" y2="462.37147" style="fill:none;stroke:#fff;stroke-width:1.4173228346456692px"/><line x1="263.81829" y1="37.80111" x2="263.81829" y2="462.37147" style="fill:none;stroke:#fff;stroke-width:1.4173228346456692px"/><line x1="343.3355" y1="462.373" x2="263.82778" y2="462.37226" style="fill:none;stroke:#fff;stroke-width:1.4173228346456692px"/><line x1="343.3355" y1="435.83751" x2="263.82778" y2="435.83677" style="fill:none;stroke:#fff;stroke-width:1.4173228346456692px"/><line x1="343.3355" y1="409.30201" x2="263.82778" y2="409.30127" style="fill:none;stroke:#fff;stroke-width:1.4173228346456692px"/><line x1="343.3355" y1="382.76651" x2="263.82778" y2="382.76577" style="fill:none;stroke:#fff;stroke-width:1.4173228346456692px"/><line x1="343.3355" y1="356.23102" x2="263.82778" y2="356.23028" style="fill:none;stroke:#fff;stroke-width:1.4173228346456692px"/><line x1="343.3355" y1="329.69552" x2="263.82778" y2="329.69478" style="fill:none;stroke:#fff;stroke-width:1.4173228346456692px"/><line x1="343.3355" y1="303.16003" x2="263.82778" y2="303.15929" style="fill:none;stroke:#fff;stroke-width:1.4173228346456692px"/><line x1="343.3355" y1="276.62453" x2="263.82778" y2="276.62379" style="fill:none;stroke:#fff;stroke-width:1.4173228346456692px"/><line x1="343.33551" y1="250.08904" x2="263.82778" y2="250.08829" style="fill:none;stroke:#fff;stroke-width:1.4173228346456692px"/><line x1="343.33551" y1="223.55354" x2="263.82778" y2="223.5528" style="fill:none;stroke:#fff;stroke-width:1.4173228346456692px"/><line x1="343.33551" y1="197.01804" x2="263.82778" y2="197.0173" style="fill:none;stroke:#fff;stroke-width:1.4173228346456692px"/><line x1="343.33551" y1="170.48255" x2="263.82778" y2="170.48181" style="fill:none;stroke:#fff;stroke-width:1.4173228346456692px"/><line x1="343.33551" y1="143.94705" x2="263.82778" y2="143.94631" style="fill:none;stroke:#fff;stroke-width:1.4173228346456692px"/><line x1="343.33551" y1="117.41156" x2="263.82778" y2="117.41082" style="fill:none;stroke:#fff;stroke-width:1.4173228346456692px"/><line x1="343.33551" y1="90.87606" x2="263.82778" y2="90.87532" style="fill:none;stroke:#fff;stroke-width:1.4173228346456692px"/><line x1="343.33551" y1="64.34056" x2="263.82778" y2="64.33982" style="fill:none;stroke:#fff;stroke-width:1.4173228346456692px"/><line x1="343.33551" y1="37.80507" x2="263.82778" y2="37.80433" style="fill:none;stroke:#fff;stroke-width:1.4173228346456692px"/></g><line x1="263.82778" y1="151.14625" x2="376.17222" y2="224.37743" style="fill:none;stroke:#fff;stroke-width:1.0006299212598424px"/></g></svg>