<svg xmlns="http://www.w3.org/2000/svg" viewBox="0 0 640 480"><g id="JENGAV"><rect x="137.70438" y="312.09039" width="363.81551" height="89.17357" style="fill:#3e3e3e;stroke:#fff;stroke-width:1.41732287406921px"/><rect x="137.70438" y="312.09039" width="363.81551" height="89.17357" style="fill:#3e3e3e;stroke:#fff;stroke-width:2.8346456692913384px"/><rect x="266.81098" y="312.09039" width="105.6023" height="89.17357" style="fill:none;stroke:#fff;stroke-width:2.8346456692913384px"/><line x1="432.36119" y1="401.26387" x2="432.36119" y2="462.37176" style="fill:none;stroke:#626261;stroke-width:5.669291338582677px"/><line x1="421.39276" y1="401.26387" x2="421.39276" y2="449.90449" style="fill:none;stroke:#626261;stroke-width:5.669291338582677px"/><line x1="410.42432" y1="401.26387" x2="410.42432" y2="437.43722" style="fill:none;stroke:#626261;stroke-width:5.669291338582677px"/><line x1="399.45588" y1="401.26387" x2="399.45588" y2="424.96995" style="fill:none;stroke:#626261;stroke-width:5.669291338582677px"/><line x1="497.68801" y1="401.26389" x2="497.68801" y2="462.37178" style="fill:none;stroke:#626261;stroke-width:5.669291338582677px"/><line x1="479.46105" y1="401.26389" x2="479.46105" y2="449.90451" style="fill:none;stroke:#626261;stroke-width:5.669291338582677px"/><line x1="461.23409" y1="401.26389" x2="461.23409" y2="437.43724" style="fill:none;stroke:#626261;stroke-width:5.669291338582677px"/><line x1="443.00712" y1="401.26389" x2="443.00712" y2="424.96997" style="fill:none;stroke:#626261;stroke-width:5.669291338582677px"/><line x1="206.86313" y1="401.26387" x2="206.86313" y2="462.37176" style="fill:none;stroke:#626261;stroke-width:5.669291338582677px"/><line x1="217.83157" y1="401.26387" x2="217.83157" y2="449.90449" style="fill:none;stroke:#626261;stroke-width:5.669291338582677px"/><line x1="228.8" y1="401.26387" x2="228.8" y2="437.43722" style="fill:none;stroke:#626261;stroke-width:5.669291338582677px"/><line x1="239.76844" y1="401.26387" x2="239.76844" y2="424.96995" style="fill:none;stroke:#626261;stroke-width:5.669291338582677px"/><line x1="141.53631" y1="401.26389" x2="141.53631" y2="462.37178" style="fill:none;stroke:#626261;stroke-width:5.669291338582677px"/><line x1="159.76327" y1="401.26389" x2="159.76327" y2="449.90451" style="fill:none;stroke:#626261;stroke-width:5.669291338582677px"/><line x1="177.99024" y1="401.26389" x2="177.99024" y2="437.43724" style="fill:none;stroke:#626261;stroke-width:5.669291338582677px"/><line x1="196.2172" y1="401.26389" x2="196.2172" y2="424.96997" style="fill:none;stroke:#626261;stroke-width:5.669291338582677px"/><rect x="163.41839" y="243.38067" width="312.38749" height="68.70972" style="fill:#3e3e3e;stroke:#fff;stroke-width:2.8346456692913384px"/><rect x="163.41839" y="182.08566" width="312.38749" height="61.29501" style="fill:#3e3e3e;stroke:#fff;stroke-width:2.8346456692913384px"/><rect x="163.41839" y="182.08566" width="105.6023" height="61.29501" style="fill:#3e3e3e;stroke:#fff;stroke-width:2.8346456692913384px"/><line x1="358.35052" y1="243.38092" x2="282.31963" y2="243.38083" style="fill:none;stroke:#fff;stroke-width:1.4173228346456692px"/><line x1="358.35052" y1="251.80366" x2="282.2642" y2="251.80358" style="fill:none;stroke:#fff;stroke-width:1.4173228346456692px"/><line x1="358.35052" y1="260.2264" x2="282.20877" y2="260.22632" style="fill:none;stroke:#fff;stroke-width:1.4173228346456692px"/><line x1="358.35052" y1="268.64915" x2="282.15334" y2="268.64907" style="fill:none;stroke:#fff;stroke-width:1.4173228346456692px"/><line x1="358.35052" y1="277.07189" x2="282.09791" y2="277.07181" style="fill:none;stroke:#fff;stroke-width:1.4173228346456692px"/><line x1="358.35052" y1="285.49463" x2="282.04248" y2="285.49456" style="fill:none;stroke:#fff;stroke-width:1.4173228346456692px"/><line x1="358.35052" y1="293.91738" x2="281.98704" y2="293.9173" style="fill:none;stroke:#fff;stroke-width:1.4173228346456692px"/><line x1="358.35052" y1="302.34012" x2="281.93161" y2="302.34005" style="fill:none;stroke:#fff;stroke-width:1.4173228346456692px"/><line x1="358.35051" y1="310.76286" x2="281.87618" y2="310.76279" style="fill:none;stroke:#fff;stroke-width:1.4173228346456692px"/><line x1="358.35051" y1="319.1856" x2="281.82075" y2="319.18554" style="fill:none;stroke:#fff;stroke-width:1.4173228346456692px"/><line x1="358.35051" y1="327.60835" x2="281.76532" y2="327.60828" style="fill:none;stroke:#fff;stroke-width:1.4173228346456692px"/><line x1="358.35051" y1="336.03109" x2="281.70989" y2="336.03103" style="fill:none;stroke:#fff;stroke-width:1.4173228346456692px"/><line x1="358.35051" y1="344.45383" x2="281.65446" y2="344.45377" style="fill:none;stroke:#fff;stroke-width:1.4173228346456692px"/><line x1="358.35051" y1="352.87658" x2="281.59903" y2="352.87652" style="fill:none;stroke:#fff;stroke-width:1.4173228346456692px"/><line x1="358.35051" y1="361.29932" x2="281.5436" y2="361.29926" style="fill:none;stroke:#fff;stroke-width:1.4173228346456692px"/><line x1="358.35051" y1="369.72206" x2="281.48817" y2="369.72201" style="fill:none;stroke:#fff;stroke-width:1.4173228346456692px"/><line x1="358.35051" y1="378.14481" x2="281.43273" y2="378.14475" style="fill:none;stroke:#fff;stroke-width:1.4173228346456692px"/><line x1="358.35051" y1="386.56755" x2="281.3773" y2="386.5675" style="fill:none;stroke:#fff;stroke-width:1.4173228346456692px"/><line x1="358.35051" y1="394.99029" x2="281.32187" y2="394.99025" style="fill:none;stroke:#fff;stroke-width:1.4173228346456692px"/><line x1="358.3505" y1="404.22128" x2="281.21101" y2="404.22123" style="fill:none;stroke:#626261;stroke-width:5.669291338582677px"/><line x1="358.3505" y1="413.9131" x2="281.15558" y2="413.91305" style="fill:none;stroke:#626261;stroke-width:5.669291338582677px"/><line x1="358.3505" y1="423.60493" x2="281.10015" y2="423.60488" style="fill:none;stroke:#626261;stroke-width:5.669291338582677px"/><line x1="358.3505" y1="433.29676" x2="281.04472" y2="433.29671" style="fill:none;stroke:#626261;stroke-width:5.669291338582677px"/><line x1="358.3505" y1="442.98858" x2="280.98929" y2="442.98854" style="fill:none;stroke:#626261;stroke-width:5.669291338582677px"/><line x1="358.3505" y1="452.68041" x2="280.93386" y2="452.68037" style="fill:none;stroke:#626261;stroke-width:5.669291338582677px"/><line x1="358.3505" y1="462.37224" x2="280.87842" y2="462.3722" style="fill:none;stroke:#626261;stroke-width:5.669291338582677px"/></g></svg>