<svg xmlns="http://www.w3.org/2000/svg" viewBox="0 0 640 480"><g id="JENGAV"><polygon points="356.052 346.28 86.493 346.28 86.493 462.372 553.507 462.372 553.507 346.28 356.052 346.28" style="fill:#3e3e3e;stroke:#fff;stroke-width:2.8346456692913384px"/><polygon points="356.052 346.28 553.507 346.28 517.721 323.55 507.282 323.55 507.282 327.726 356.052 346.28" style="fill:#3e3e3e;stroke:#fff;stroke-width:1.41732287406921px"/><polygon points="219.601 327.726 219.601 323.55 151.129 323.55 86.493 346.28 356.052 346.28 219.601 327.726" style="fill:#3e3e3e;stroke:#fff;stroke-width:1.41732287406921px"/><line x1="491.81047" y1="330.29434" x2="519.8905" y2="346.28107" style="fill:none;stroke:#fff;stroke-width:1.4173228346456692px"/><line x1="462.67288" y1="329.68126" x2="483.54677" y2="346.28107" style="fill:none;stroke:#fff;stroke-width:1.4173228346456692px"/><line x1="433.53529" y1="329.06818" x2="447.20304" y2="346.28107" style="fill:none;stroke:#fff;stroke-width:1.4173228346456692px"/><line x1="404.3977" y1="328.4551" x2="410.85932" y2="346.28107" style="fill:none;stroke:#fff;stroke-width:1.4173228346456692px"/><line x1="375.26011" y1="327.84201" x2="374.51559" y2="346.28107" style="fill:none;stroke:#fff;stroke-width:1.4173228346456692px"/><line x1="346.12252" y1="327.22893" x2="338.17186" y2="346.28107" style="fill:none;stroke:#fff;stroke-width:1.4173228346456692px"/><line x1="316.98493" y1="326.61585" x2="301.82814" y2="346.28107" style="fill:none;stroke:#fff;stroke-width:1.4173228346456692px"/><line x1="287.84734" y1="326.00276" x2="265.48441" y2="346.28107" style="fill:none;stroke:#fff;stroke-width:1.4173228346456692px"/><line x1="258.70975" y1="325.38968" x2="229.14068" y2="346.28107" style="fill:none;stroke:#fff;stroke-width:1.4173228346456692px"/><line x1="229.57216" y1="324.7766" x2="192.79696" y2="346.28107" style="fill:none;stroke:#fff;stroke-width:1.4173228346456692px"/><line x1="200.43457" y1="324.16351" x2="156.45323" y2="346.28107" style="fill:none;stroke:#fff;stroke-width:1.4173228346456692px"/><line x1="171.29698" y1="323.55043" x2="120.1095" y2="346.28107" style="fill:none;stroke:#fff;stroke-width:1.4173228346456692px"/><line x1="519.89055" y1="346.28056" x2="519.89055" y2="462.37226" style="fill:none;stroke:#fff;stroke-width:1.4173228346456692px"/><line x1="483.54683" y1="346.28056" x2="483.54683" y2="462.37226" style="fill:none;stroke:#fff;stroke-width:1.4173228346456692px"/><line x1="447.2031" y1="346.28056" x2="447.2031" y2="462.37226" style="fill:none;stroke:#fff;stroke-width:1.4173228346456692px"/><line x1="410.85937" y1="346.28056" x2="410.85937" y2="462.37226" style="fill:none;stroke:#fff;stroke-width:1.4173228346456692px"/><line x1="374.51565" y1="346.28056" x2="374.51565" y2="462.37226" style="fill:none;stroke:#fff;stroke-width:1.4173228346456692px"/><line x1="338.17192" y1="346.28056" x2="338.17192" y2="462.37226" style="fill:none;stroke:#fff;stroke-width:1.4173228346456692px"/><line x1="301.82819" y1="346.28056" x2="301.82819" y2="462.37226" style="fill:none;stroke:#fff;stroke-width:1.4173228346456692px"/><line x1="265.48447" y1="346.28056" x2="265.48447" y2="462.37226" style="fill:none;stroke:#fff;stroke-width:1.4173228346456692px"/><line x1="229.14074" y1="346.28056" x2="229.14074" y2="462.37226" style="fill:none;stroke:#fff;stroke-width:1.4173228346456692px"/><line x1="192.79702" y1="346.28056" x2="192.79702" y2="462.37226" style="fill:none;stroke:#fff;stroke-width:1.4173228346456692px"/><line x1="156.45329" y1="346.28056" x2="156.45329" y2="462.37226" style="fill:none;stroke:#fff;stroke-width:1.4173228346456692px"/><line x1="120.10956" y1="346.28056" x2="120.10956" y2="462.37226" style="fill:none;stroke:#fff;stroke-width:1.4173228346456692px"/><line x1="86.4933" y1="386.08294" x2="553.5067" y2="386.08294" style="fill:none;stroke:#fff;stroke-width:1.4173228346456692px"/><line x1="86.4933" y1="424.97043" x2="553.5067" y2="424.97043" style="fill:none;stroke:#fff;stroke-width:1.4173228346456692px"/><polygon points="459.992 228.957 459.992 151.373 251.037 151.373 251.037 229.281 356.052 226.249 459.992 228.957" style="fill:#3e3e3e;stroke:#fff;stroke-width:2.8346456692913384px"/><polygon points="251.037 229.281 219.601 230.188 219.601 323.55 219.601 327.726 356.052 346.28 356.052 323.55 356.052 240.343 356.052 226.249 251.037 229.281" style="fill:#3e3e3e;stroke:#fff;stroke-width:2.8346456692913384px"/><polygon points="459.992 228.957 356.052 226.249 356.052 240.343 356.052 323.55 356.052 346.28 507.282 327.726 507.282 323.55 507.282 230.188 459.992 228.957" style="fill:#3e3e3e;stroke:#fff;stroke-width:2.8346456692913384px"/><line x1="426.95764" y1="151.37369" x2="426.95764" y2="226.24945" style="fill:none;stroke:#fff;stroke-width:1.4173228346456692px"/><line x1="391.20402" y1="151.37369" x2="391.20402" y2="226.24945" style="fill:none;stroke:#fff;stroke-width:1.4173228346456692px"/><line x1="355.45041" y1="151.37369" x2="355.45041" y2="226.24945" style="fill:none;stroke:#fff;stroke-width:1.4173228346456692px"/><line x1="319.69679" y1="151.37369" x2="319.69679" y2="226.24945" style="fill:none;stroke:#fff;stroke-width:1.4173228346456692px"/><line x1="283.94318" y1="151.37369" x2="283.94318" y2="226.24945" style="fill:none;stroke:#fff;stroke-width:1.4173228346456692px"/><line x1="251.03697" y1="190.32708" x2="459.99163" y2="190.32708" style="fill:none;stroke:#fff;stroke-width:1.4173228346456692px"/><line x1="326.66696" y1="227.09761" x2="326.66696" y2="342.28473" style="fill:none;stroke:#fff;stroke-width:1.4173228346456692px"/><line x1="304.32427" y1="227.74256" x2="304.32427" y2="339.21093" style="fill:none;stroke:#fff;stroke-width:1.4173228346456692px"/><line x1="281.98158" y1="228.38751" x2="281.98158" y2="336.13712" style="fill:none;stroke:#fff;stroke-width:1.4173228346456692px"/><line x1="259.63889" y1="229.03246" x2="259.63889" y2="333.06332" style="fill:none;stroke:#fff;stroke-width:1.4173228346456692px"/><line x1="237.2962" y1="229.67741" x2="237.2962" y2="329.98952" style="fill:none;stroke:#fff;stroke-width:1.4173228346456692px"/><line x1="392.26468" y1="227.19258" x2="392.26468" y2="341.8375" style="fill:none;stroke:#fff;stroke-width:1.4173228346456692px"/><line x1="416.154" y1="227.81379" x2="416.154" y2="338.95171" style="fill:none;stroke:#fff;stroke-width:1.4173228346456692px"/><line x1="440.04333" y1="228.43499" x2="440.04333" y2="336.06592" style="fill:none;stroke:#fff;stroke-width:1.4173228346456692px"/><line x1="463.93265" y1="229.0562" x2="463.93265" y2="333.18013" style="fill:none;stroke:#fff;stroke-width:1.4173228346456692px"/><line x1="487.82198" y1="229.67741" x2="487.82198" y2="330.29434" style="fill:none;stroke:#fff;stroke-width:1.4173228346456692px"/><polyline points="219.601 265.291 356.052 265.291 509.204 265.291" style="fill:none;stroke:#fff;stroke-width:1.4173228346456692px"/><polyline points="219.601 297.766 356.052 309.727 509.202 297.766" style="fill:none;stroke:#fff;stroke-width:1.4173228346456692px"/></g></svg>