<svg id="RAINBOW" xmlns="http://www.w3.org/2000/svg" viewBox="0 0 640 480"><path d="M97.84765,353.21218H80.36327v16.78125H79.09765v-34.125h21.14062v1.26562h-19.875v14.76563H97.84765Z" style="fill:none;stroke:#626261;stroke-width:2.8346457481384277px"/><path d="M146.335,335.86843V358.9778q0,5.41407-3.14063,8.44922a13.44164,13.44164,0,0,1-17.01562,0,11.14911,11.14911,0,0,1-3.16406-8.35547V335.86843h1.26562v23.0625a9.97094,9.97094,0,0,0,2.84766,7.5,11.69583,11.69583,0,0,0,15.10547,0,10.02428,10.02428,0,0,0,2.83593-7.52344V335.86843Z" style="fill:none;stroke:#626261;stroke-width:2.8346457481384277px"/><path d="M194.86913,337.13405H182.44725v32.85938h-1.26562V337.13405H168.75975v-1.26562h26.10938Z" style="fill:none;stroke:#626261;stroke-width:2.8346457481384277px"/><path d="M240.61522,335.86843V358.9778q0,5.41407-3.14062,8.44922a13.44165,13.44165,0,0,1-17.01563,0,11.14915,11.14915,0,0,1-3.16406-8.35547V335.86843h1.26563v23.0625a9.97093,9.97093,0,0,0,2.84765,7.5,11.69583,11.69583,0,0,0,15.10547,0,10.02425,10.02425,0,0,0,2.83594-7.52344V335.86843Z" style="fill:none;stroke:#626261;stroke-width:2.8346457481384277px"/><path d="M279.42284,355.39187H267.5869v14.60156h-1.26562v-34.125h10.875a11.98746,11.98746,0,0,1,8.168,2.64844,9.0588,9.0588,0,0,1,3.03515,7.19531,9.27216,9.27216,0,0,1-2.168,6.10547,9.17434,9.17434,0,0,1-5.51953,3.24609l9.11719,14.60156v.32813h-1.33594Zm-11.83594-1.26563h10.75782a8.67433,8.67433,0,0,0,6.36328-2.39062,8.10446,8.10446,0,0,0,2.42578-6.02344,7.83355,7.83355,0,0,0-2.6836-6.28125,10.93368,10.93368,0,0,0-7.34765-2.29688H267.5869Z" style="fill:none;stroke:#626261;stroke-width:2.8346457481384277px"/><path d="M333.01952,353.07155H315.91015V368.7278h19.5v1.26563H314.64452v-34.125h20.76563v1.26562h-19.5v14.67188h17.10937Z" style="fill:none;stroke:#626261;stroke-width:2.8346457481384277px"/><path d="M379.21,361.81374a6.44926,6.44926,0,0,0-1.01953-3.69141,8.62823,8.62823,0,0,0-3.21094-2.67187,34.55714,34.55714,0,0,0-6.62109-2.37891,31.15392,31.15392,0,0,1-6.64453-2.46093,8.78725,8.78725,0,0,1-3.2461-2.88282,7.33942,7.33942,0,0,1-1.03125-3.98437,7.15554,7.15554,0,0,1,3.14063-6.03516,13.47392,13.47392,0,0,1,8.17968-2.30859,13.24786,13.24786,0,0,1,5.89454,1.27734,9.57064,9.57064,0,0,1,4.043,3.58594,9.7016,9.7016,0,0,1,1.42969,5.21484h-1.26562a8.07942,8.07942,0,0,0-2.8125-6.3164,10.57161,10.57161,0,0,0-7.28907-2.4961,12.15811,12.15811,0,0,0-7.27734,2.00391,6.09587,6.09587,0,0,0-.36328,9.97266q2.41406,1.875,7.96875,3.3164a24.54548,24.54548,0,0,1,8.13281,3.33985,7.62925,7.62925,0,0,1,3.28125,6.46875,7.50367,7.50367,0,0,1-1.45312,4.55859,9.254,9.254,0,0,1-4.125,3.05859,15.90988,15.90988,0,0,1-6,1.07813,17.16117,17.16117,0,0,1-6.65625-1.23047,9.46854,9.46854,0,0,1-4.44141-3.50391,9.57685,9.57685,0,0,1-1.48828-5.36718h1.26562a7.63217,7.63217,0,0,0,3.14063,6.51562,13.42467,13.42467,0,0,0,8.17969,2.32031,12.50408,12.50408,0,0,0,7.38281-2.05078A6.26,6.26,0,0,0,379.21,361.81374Z" style="fill:none;stroke:#626261;stroke-width:2.8346457481384277px"/><path d="M427.15819,359.5403a11.902,11.902,0,0,1-3.63281,8.09766q-3.14062,2.82421-8.53125,2.82422a11.45136,11.45136,0,0,1-6.43359-1.83985,12.06642,12.06642,0,0,1-4.34766-5.22656,18.702,18.702,0,0,1-1.57031-7.74609v-5.27344a19.02794,19.02794,0,0,1,1.52343-7.793,12.04742,12.04742,0,0,1,4.34766-5.30859,11.44628,11.44628,0,0,1,6.48047-1.875,12.33829,12.33829,0,0,1,8.50781,2.8125,11.7791,11.7791,0,0,1,3.65625,8.0625h-1.26562a10.84881,10.84881,0,0,0-3.28125-7.16016q-2.74219-2.44922-7.61719-2.44922a9.85714,9.85714,0,0,0-8.02734,3.75q-3.0586,3.75-3.0586,10.05469v5.01563a17.64708,17.64708,0,0,0,1.35938,7.13671,11.06086,11.06086,0,0,0,3.90234,4.83985,10.08993,10.08993,0,0,0,5.82422,1.73437q4.89843,0,7.65234-2.41406t3.2461-7.24219Z" style="fill:none;stroke:#626261;stroke-width:2.8346457481384277px"/><path d="M469.834,359.79812H453.123l-3.79688,10.19531h-1.38281l12.77344-34.125h1.54687l12.77344,34.125h-1.38281Zm-16.24218-1.26563h15.77343l-7.875-21.14062Z" style="fill:none;stroke:#626261;stroke-width:2.8346457481384277px"/><path d="M498.5869,355.57937v14.41406h-1.26562v-34.125h10.66406q5.22657,0,8.12109,2.63672a9.4073,9.4073,0,0,1,2.89454,7.32422,9.13166,9.13166,0,0,1-2.82422,7.17187q-2.82423,2.53125-8.02735,2.57813Zm0-1.26563h9.39844q4.61719,0,7.18359-2.22656a7.78523,7.78523,0,0,0,2.56641-6.21094,8.20978,8.20978,0,0,0-2.56641-6.43359q-2.5664-2.30861-7.18359-2.3086H498.5869Z" style="fill:none;stroke:#626261;stroke-width:2.8346457481384277px"/><path d="M561.32421,353.07155H544.21483V368.7278h19.5v1.26563H542.94921v-34.125h20.76562v1.26562h-19.5v14.67188h17.10938Z" style="fill:none;stroke:#626261;stroke-width:2.8346457481384277px"/><polyline points="149.425 303.912 149.425 209.919 209.723 209.919 209.723 303.912" style="fill:none;stroke:#626261;stroke-width:5.669291338582677px"/><polyline points="226.21 303.912 226.21 178.005 286.507 178.005 286.507 303.912" style="fill:none;stroke:#626261;stroke-width:5.669291338582677px"/><polyline points="392.92 303.912 392.92 209.919 453.218 209.919 453.218 303.912" style="fill:none;stroke:#626261;stroke-width:5.669291338582677px"/><polyline points="316.058 303.912 316.058 224.797 372.303 224.797 372.303 303.912" style="fill:none;stroke:#626261;stroke-width:5.669291338582677px"/><polyline points="453.218 303.912 453.218 240 487.389 240 487.389 303.912" style="fill:none;stroke:#626261;stroke-width:5.669291338582677px"/><polyline points="372.303 303.912 372.303 256.915 392.92 256.915 392.92 303.912" style="fill:none;stroke:#626261;stroke-width:5.669291338582677px"/><polyline points="286.507 303.912 286.507 256.915 316.058 256.915 316.058 303.912" style="fill:none;stroke:#626261;stroke-width:5.669291338582677px"/><polyline points="209.723 303.912 209.723 238.195 226.21 238.195 226.21 303.912" style="fill:none;stroke:#626261;stroke-width:5.669291338582677px"/><line x1="344.18045" y1="145.48978" x2="344.18045" y2="171.6867" style="fill:none;stroke:#626261;stroke-width:5.669291338582677px"/><line x1="179.57427" y1="178.00498" x2="179.57427" y2="194.13322" style="fill:none;stroke:#626261;stroke-width:5.669291338582677px"/><path d="M179.57421,194.1332a28.12076,28.12076,0,0,0-25.27515,15.78558h50.55029A28.12074,28.12074,0,0,0,179.57421,194.1332Z" style="fill:none;stroke:#626261;stroke-width:5.669291338582677px"/><polygon points="344.18 171.687 318.15 224.797 370.211 224.797 344.18 171.687" style="fill:none;stroke:#626261;stroke-width:5.669291338582677px"/><polygon points="423.069 194.133 391.788 209.919 454.35 209.919 423.069 194.133" style="fill:none;stroke:#626261;stroke-width:5.669291338582677px"/></svg>