<svg xmlns="http://www.w3.org/2000/svg" viewBox="0 0 640 480"><g id="JENGAV"><path d="M320.00052,197.52094c-135.08751,0-245.64384,117.75587-251.30081,264.85132h55.94183c5.66112-111.87,91.12069-200.98355,195.359-200.98355,104.23725,0,189.69682,89.11354,195.3569,200.98355h55.94287C565.64228,315.27681,455.087,197.52094,320.00052,197.52094Z" style="fill:#3e3e3e;stroke:#fff;stroke-width:1.41732287406921px"/><line x1="320" y1="197.52094" x2="320" y2="261.38871" style="fill:none;stroke:#fff;stroke-width:1.41732287406921px"/><line x1="358.47022" y1="265.75303" x2="372.16165" y2="204.87488" style="fill:none;stroke:#fff;stroke-width:1.41732287406921px"/><line x1="396.94043" y1="278.53876" x2="423.9569" y2="222.27941" style="fill:none;stroke:#fff;stroke-width:1.41732287406921px"/><line x1="428.02605" y1="295.29775" x2="462.50604" y2="248.58992" style="fill:none;stroke:#fff;stroke-width:1.41732287406921px"/><line x1="453.8772" y1="319.1475" x2="498.05416" y2="278.96573" style="fill:none;stroke:#fff;stroke-width:1.41732287406921px"/><line x1="478.09337" y1="346.28018" x2="524.85824" y2="316.82323" style="fill:none;stroke:#fff;stroke-width:1.41732287406921px"/><line x1="496.08586" y1="377.67331" x2="546.39459" y2="357.65885" style="fill:none;stroke:#fff;stroke-width:1.41732287406921px"/><line x1="510.47537" y1="419.24999" x2="563.13849" y2="409.03381" style="fill:none;stroke:#fff;stroke-width:1.41732287406921px"/><line x1="515.35742" y1="462.37226" x2="571.30029" y2="462.37226" style="fill:none;stroke:#fff;stroke-width:1.41732287406921px"/><line x1="320" y1="197.52094" x2="320" y2="261.38871" style="fill:none;stroke:#fff;stroke-width:1.41732287406921px"/><line x1="281.52978" y1="265.75303" x2="267.83835" y2="204.87488" style="fill:none;stroke:#fff;stroke-width:1.41732287406921px"/><line x1="243.05957" y1="278.53876" x2="216.0431" y2="222.27941" style="fill:none;stroke:#fff;stroke-width:1.41732287406921px"/><line x1="211.97395" y1="295.29775" x2="177.49396" y2="248.58992" style="fill:none;stroke:#fff;stroke-width:1.41732287406921px"/><line x1="186.1228" y1="319.1475" x2="141.94584" y2="278.96573" style="fill:none;stroke:#fff;stroke-width:1.41732287406921px"/><line x1="161.90663" y1="346.28018" x2="115.14176" y2="316.82323" style="fill:none;stroke:#fff;stroke-width:1.41732287406921px"/><line x1="143.91414" y1="377.67331" x2="93.60541" y2="357.65885" style="fill:none;stroke:#fff;stroke-width:1.41732287406921px"/><line x1="129.52463" y1="419.24999" x2="76.86151" y2="409.03381" style="fill:none;stroke:#fff;stroke-width:1.41732287406921px"/><line x1="124.64258" y1="462.37226" x2="68.69971" y2="462.37226" style="fill:none;stroke:#fff;stroke-width:1.41732287406921px"/><line x1="358.47022" y1="265.75303" x2="372.16165" y2="204.87488" style="fill:#1d1d1b"/><line x1="396.94043" y1="278.53876" x2="423.9569" y2="222.27941" style="fill:#1d1d1b"/><line x1="428.02605" y1="295.29775" x2="462.50604" y2="248.58992" style="fill:#1d1d1b"/><line x1="453.8772" y1="319.1475" x2="498.05416" y2="278.96573" style="fill:#1d1d1b"/><line x1="478.09337" y1="346.28018" x2="524.85824" y2="316.82323" style="fill:#1d1d1b"/><line x1="496.08586" y1="377.67331" x2="546.39459" y2="357.65885" style="fill:#1d1d1b"/><line x1="510.47537" y1="419.24999" x2="563.13849" y2="409.03381" style="fill:#1d1d1b"/><line x1="320" y1="197.52094" x2="320" y2="261.38871" style="fill:#1d1d1b"/><line x1="281.52978" y1="265.75303" x2="267.83835" y2="204.87488" style="fill:#1d1d1b"/><line x1="243.05957" y1="278.53876" x2="216.0431" y2="222.27941" style="fill:#1d1d1b"/><line x1="211.97395" y1="295.29775" x2="177.49396" y2="248.58992" style="fill:#1d1d1b"/><line x1="186.1228" y1="319.1475" x2="141.94584" y2="278.96573" style="fill:#1d1d1b"/><line x1="161.90663" y1="346.28018" x2="115.14176" y2="316.82323" style="fill:#1d1d1b"/><line x1="143.91414" y1="377.67331" x2="93.60541" y2="357.65885" style="fill:#1d1d1b"/><line x1="129.52463" y1="419.24999" x2="76.86151" y2="409.03381" style="fill:#1d1d1b"/><line x1="124.64258" y1="462.37226" x2="68.69971" y2="462.37226" style="fill:#1d1d1b"/><line x1="358.47022" y1="265.75303" x2="372.16165" y2="204.87488" style="fill:#1d1d1b"/><line x1="396.94043" y1="278.53876" x2="423.9569" y2="222.27941" style="fill:#1d1d1b"/><line x1="428.02605" y1="295.29775" x2="462.50604" y2="248.58992" style="fill:#1d1d1b"/><line x1="453.8772" y1="319.1475" x2="498.05416" y2="278.96573" style="fill:#1d1d1b"/><line x1="478.09337" y1="346.28018" x2="524.85824" y2="316.82323" style="fill:#1d1d1b"/><line x1="496.08586" y1="377.67331" x2="546.39459" y2="357.65885" style="fill:#1d1d1b"/><line x1="510.47537" y1="419.24999" x2="563.13849" y2="409.03381" style="fill:#1d1d1b"/><line x1="320" y1="197.52094" x2="320" y2="261.38871" style="fill:#1d1d1b"/><line x1="281.52978" y1="265.75303" x2="267.83835" y2="204.87488" style="fill:#1d1d1b"/><line x1="243.05957" y1="278.53876" x2="216.0431" y2="222.27941" style="fill:#1d1d1b"/><line x1="211.97395" y1="295.29775" x2="177.49396" y2="248.58992" style="fill:#1d1d1b"/><line x1="186.1228" y1="319.1475" x2="141.94584" y2="278.96573" style="fill:#1d1d1b"/><line x1="161.90663" y1="346.28018" x2="115.14176" y2="316.82323" style="fill:#1d1d1b"/><line x1="143.91414" y1="377.67331" x2="93.60541" y2="357.65885" style="fill:#1d1d1b"/><line x1="129.52463" y1="419.24999" x2="76.86151" y2="409.03381" style="fill:#1d1d1b"/><line x1="124.64258" y1="462.37226" x2="68.69971" y2="462.37226" style="fill:#1d1d1b"/><line x1="358.47022" y1="265.75303" x2="372.16165" y2="204.87488" style="fill:#1d1d1b"/><line x1="396.94043" y1="278.53876" x2="423.9569" y2="222.27941" style="fill:#1d1d1b"/><line x1="428.02605" y1="295.29775" x2="462.50604" y2="248.58992" style="fill:#1d1d1b"/><line x1="453.8772" y1="319.1475" x2="498.05416" y2="278.96573" style="fill:#1d1d1b"/><line x1="478.09337" y1="346.28018" x2="524.85824" y2="316.82323" style="fill:#1d1d1b"/><line x1="496.08586" y1="377.67331" x2="546.39459" y2="357.65885" style="fill:#1d1d1b"/><line x1="510.47537" y1="419.24999" x2="563.13849" y2="409.03381" style="fill:#1d1d1b"/><line x1="320" y1="197.52094" x2="320" y2="261.38871" style="fill:#1d1d1b"/><line x1="281.52978" y1="265.75303" x2="267.83835" y2="204.87488" style="fill:#1d1d1b"/><line x1="243.05957" y1="278.53876" x2="216.0431" y2="222.27941" style="fill:#1d1d1b"/><line x1="211.97395" y1="295.29775" x2="177.49396" y2="248.58992" style="fill:#1d1d1b"/><line x1="186.1228" y1="319.1475" x2="141.94584" y2="278.96573" style="fill:#1d1d1b"/><line x1="161.90663" y1="346.28018" x2="115.14176" y2="316.82323" style="fill:#1d1d1b"/><line x1="143.91414" y1="377.67331" x2="93.60541" y2="357.65885" style="fill:#1d1d1b"/><line x1="129.52463" y1="419.24999" x2="76.86151" y2="409.03381" style="fill:#1d1d1b"/><line x1="124.64258" y1="462.37226" x2="68.69971" y2="462.37226" style="fill:#1d1d1b"/><line x1="320" y1="197.52094" x2="320" y2="261.38871" style="fill:none;stroke:#fff;stroke-width:2.125984251968504px"/><line x1="358.47022" y1="265.75303" x2="372.16165" y2="204.87488" style="fill:none;stroke:#fff;stroke-width:2.125984251968504px"/><line x1="396.94043" y1="278.53876" x2="423.9569" y2="222.27941" style="fill:none;stroke:#fff;stroke-width:2.125984251968504px"/><line x1="428.02605" y1="295.29775" x2="462.50604" y2="248.58992" style="fill:none;stroke:#fff;stroke-width:2.125984251968504px"/><line x1="453.8772" y1="319.1475" x2="498.05416" y2="278.96573" style="fill:none;stroke:#fff;stroke-width:2.125984251968504px"/><line x1="478.09337" y1="346.28018" x2="524.85824" y2="316.82323" style="fill:none;stroke:#fff;stroke-width:2.125984251968504px"/><line x1="496.08586" y1="377.67331" x2="546.39459" y2="357.65885" style="fill:none;stroke:#fff;stroke-width:2.125984251968504px"/><line x1="510.47537" y1="419.24999" x2="563.13849" y2="409.03381" style="fill:none;stroke:#fff;stroke-width:2.125984251968504px"/><line x1="515.35742" y1="462.37226" x2="571.30029" y2="462.37226" style="fill:none;stroke:#fff;stroke-width:2.125984251968504px"/><line x1="320" y1="197.52094" x2="320" y2="261.38871" style="fill:none;stroke:#fff;stroke-width:2.125984251968504px"/><line x1="281.52978" y1="265.75303" x2="267.83835" y2="204.87488" style="fill:none;stroke:#fff;stroke-width:2.125984251968504px"/><line x1="243.05957" y1="278.53876" x2="216.0431" y2="222.27941" style="fill:none;stroke:#fff;stroke-width:2.125984251968504px"/><line x1="211.97395" y1="295.29775" x2="177.49396" y2="248.58992" style="fill:none;stroke:#fff;stroke-width:2.125984251968504px"/><line x1="186.1228" y1="319.1475" x2="141.94584" y2="278.96573" style="fill:none;stroke:#fff;stroke-width:2.125984251968504px"/><line x1="161.90663" y1="346.28018" x2="115.14176" y2="316.82323" style="fill:none;stroke:#fff;stroke-width:2.125984251968504px"/><line x1="143.91414" y1="377.67331" x2="93.60541" y2="357.65885" style="fill:none;stroke:#fff;stroke-width:2.125984251968504px"/><line x1="129.52463" y1="419.24999" x2="76.86151" y2="409.03381" style="fill:none;stroke:#fff;stroke-width:2.125984251968504px"/><line x1="124.64258" y1="462.37226" x2="68.69971" y2="462.37226" style="fill:none;stroke:#fff;stroke-width:2.125984251968504px"/></g></svg>