<svg xmlns="http://www.w3.org/2000/svg" viewBox="0 0 640 480"><title>BUILDING CONCEPTS</title><g id="STACK"><path d="M235.60222,426.81848c0-17.9685-.14374-35.55085.02747-53.13014q.72384-74.351,1.64991-148.70009c.04352-3.90248.0058-7.8057.0058-12.24645-6.3495-.62191-11.49607-1.12613-17.136-1.67857V139.5125H419.51794c.59841,23.67432.1941,47.37586.2555,71.4831-5.91528.63472-10.75959,1.15444-16.26262,1.74485v98.39941q6.94932.81,13.44708,1.56722c2.33566,7.90752,2.66209,103.72542.37452,114.1114Zm91.33515-2.45759q38.96376,0,77.92751-.01844c9.85428-.02051,10.13554-.28177,10.15458-10.091q.08533-43.96344-.00329-87.92711c-.0177-9.99262-.30714-10.34411-9.87247-10.35339q-78.42777-.07581-156.85573.00134c-9.17627.009-9.59657.45856-9.61446,9.56447q-.08734,44.46283-.00006,88.926c.01874,9.56557.35774,9.85967,10.33636,9.87725Q287.97347,424.40868,326.93737,424.36089ZM332.1376,213.9347q-27.95328,0-55.90649.00842c-11.89678.02039-11.93474.057-11.95745,12.36219q-.05145,27.95575-.00842,55.91151c.00153,6.98882.09986,13.97886.00348,20.96621-.06794,4.93056,1.94643,7.545,7.11241,7.23567,1.32567-.07948,2.66124.01673,3.99228.01673q56.40563.00165,112.81124-.01343c10.66717-.00977,10.80878-.13,10.83173-10.37585q.085-37.93977.00354-75.87979c-.021-9.92791-.2599-10.17636-9.97757-10.2131C370.07442,213.88171,351.10589,213.93238,332.1376,213.9347Zm58.92924-6.08685c0-21.02969.01465-40.6306-.0133-60.23152-.00525-3.65294-1.98336-5.472-5.61375-5.51011-2.6643-.028-5.32883-.0536-7.99325-.0536q-69.44571-.00054-138.89138.00684c-2.99762.00024-5.998.09547-8.99218-.00427-4.43145-.14736-6.91581,1.53889-6.89933,6.33126q.09285,26.98059.021,53.96179c-.00421,4.16131,2.06326,6.08721,6.15393,6.033,1.66474-.0221,3.33034.04,4.99557.04016q72.943.00733,145.88592-.01269C382.96276,208.40689,386.20507,208.0974,391.06684,207.84785Z" style="fill:#3e3e3e;stroke:#fff;stroke-width:1.4173228740692139px"/><path d="M326.93737,424.35808q-38.96374-.004-77.92756-.01807c-9.97862-.01758-10.31762-.31168-10.33636-9.87725q-.08716-44.46282.00006-88.926c.01789-9.10591.43819-9.55543,9.61446-9.56447q78.42788-.07708,156.85573-.00134c9.56533.00928,9.85477.36077,9.87247,10.35339q.07764,43.96362.00329,87.92711c-.019,9.80925-.3003,10.07051-10.15458,10.091Q365.90123,424.42377,326.93737,424.35808Z" style="fill:#3e3e3e;stroke:#fff;stroke-width:1.4173228740692139px"/><path d="M332.1376,213.93348c18.96829-.0011,37.93682-.05177,56.90475.01978,9.71767.03674,9.95657.28519,9.97757,10.2131q.08021,37.93977-.00354,75.87979c-.023,10.24583-.16456,10.36608-10.83173,10.37585q-56.40553.05165-112.81124.01343c-1.331,0-2.66661-.09621-3.99228-.01673-5.166.30937-7.18035-2.30511-7.11241-7.23567.09638-6.98735-.00195-13.97739-.00348-20.96621q-.006-27.95575.00842-55.91151c.02271-12.30517.06067-12.3418,11.95745-12.36219Q304.1843,213.89533,332.1376,213.93348Z" style="fill:#3e3e3e;stroke:#fff;stroke-width:1.4173228740692139px"/><path d="M391.06684,207.84785c-4.86177.24955-8.10408.559-11.34677.56087q-72.943.04322-145.88592.01269c-1.66523-.00012-3.33083-.06226-4.99557-.04016-4.09067.0542-6.15814-1.8717-6.15393-6.033q.02729-26.981-.021-53.96179c-.01648-4.79237,2.46788-6.47862,6.89933-6.33126,2.99414.09974,5.99456.00451,8.99218.00427q69.44572-.00567,138.89138-.00684c2.66442,0,5.32895.02564,7.99325.0536,3.63039.03809,5.6085,1.85717,5.61375,5.51011C391.08149,167.21725,391.06684,186.81816,391.06684,207.84785Z" style="fill:#3e3e3e;stroke:#fff;stroke-width:1.4173228740692139px"/></g></svg>