<svg xmlns="http://www.w3.org/2000/svg" viewBox="0 0 640 480"><title>BUILDING CONCEPTS</title><g id="SLICE"><path d="M365.43788,323.98118l-17.16434-19.52772c-.66776,9.45771-.2394,18.42717-.31759,27.36833-.08,9.14185-.01769,18.28509-.01769,27.42772V442.721H271.66937c-1.569-5.03356-2.25694-222.83644-.57115-237.60934,1.33,1.33675,2.28222,2.29367,3.23449,3.25064q.30549.39477.57082.81655l0,.00014q2.76572,3.42856,5.53146,6.857a5.52211,5.52211,0,0,1,.56519.797q2.76681,3.41453,5.534,6.829l.00009,0a6.87864,6.87864,0,0,1,.57059.76606c1.0984,1.04936,2.19681,2.09871,3.26506,3.1192a4.75716,4.75716,0,0,0,.75717-.2132c.20832-.09941.49333-.23265.55179-.41351a4.974,4.974,0,0,0,.28506-1.486q.17313-67.068.3336-134.1358c.00056-.22358.188-.4466.288-.6699,5.33975-1.65857,62.06878-2.27212,75.7206-.81893,1.55381,5.7501,2.25285,218.14189.71231,237.36235-1.37412-1.1947-2.38144-2.07037-3.38863-2.946l0,0" style="fill:#3e3e3e;stroke:#fff;stroke-width:1.4173228740692139px"/><line x1="348.27354" y1="304.45346" x2="290.36997" y2="227.54737" style="fill:none;stroke:#fff;stroke-width:1.4173228740692139px"/></g></svg>