<svg xmlns="http://www.w3.org/2000/svg" viewBox="0 0 640 480"><title>BUILDING CONCEPTS</title><g id="SHIP"><path d="M301.16935,124.32488q1.722,1.39764,3.44423,2.79528,3.27772,4.50407,6.55532,9.00788,3.7106,3.49428,7.42131,6.98881,3.29017,4.50864,6.57986,9.01728,3.79593,3.51516,7.59186,7.0302,3.20118,4.5123,6.40235,9.02436c5.56456,5.89761,11.23288,11.70134,16.66473,17.71872,5.68212,6.29414,11.1368,12.7934,16.69135,19.203q3.30958,4.62236,6.61867,9.24472,3.71481,3.38258,7.42975,6.76515,3.29621,4.55462,6.59181,9.109,3.77469,3.46572,7.54962,6.93131,3.22536,4.54289,6.45046,9.08589,10.6026,11.717,21.20641,23.43271,12.28578,13.55631,24.58583,27.09944l-1.96663,44.748.12952-.4721q-1.06461,14.23864-2.1296,28.47694l.13025-.47382q-1.06407,14.23938-2.1285,28.47853l.129-.47516q-1.06443,14.23994-2.12911,28.4795l.12891-.47613c-.9246,5.1574-1.84919,10.31492-3.03723,16.94139-62.06646.01172-124.401-.27079-186.95893-.52351v-12.4203l-.16053.46845q1.0789-8.23386,2.15793-16.4677l-.16053.4627q2.09334-15.2195,4.18657-30.43886l-.15723.459q1.07414-8.24337,2.14828-16.48662l-.173.4704,2.15084-16.47576-.15479.4588q1.09171-7.21932,2.18343-14.43851l-.1615.462,2.13546-16.486-.15894.45856q1.08805-7.225,2.176-14.44987l-.172.45685q1.0908-7.22408,2.1816-14.448l-.16407.46808,4.13835-30.49393-.15686.46039q1.07871-7.229,2.15731-14.458l-.16065.45172q1.0811-7.22976,2.16207-14.45939l-.16517.46393q2.0972-13.22028,4.19463-26.4403l-.16834.46209q1.08147-7.238,2.16293-14.47586l-.18678.46038q1.08183-7.23836,2.16391-14.47659l-.16651.46307q1.09685-6.22548,2.19369-12.45083l-.19141.46393q2.09205-13.23693,4.18437-26.47363l-.19227.4671q1.09666-6.23353,2.19345-12.46694l-.20485.44488Q299.05262,127.90108,301.16935,124.32488Z" style="fill:#3e3e3e;stroke:#fff;stroke-width:1.4173228740692139px"/><path d="M187.04709,438.14673q.9736-3.84112,1.94722-7.68214,3.07537-14.68989,6.15076-29.37965l-.20094.43732q2.10141-9.21782,4.203-18.43561l-.20118.43206q2.10086-9.21908,4.20159-18.43829l-.20387.43646q3.07722-13.696,6.15455-27.39208.95437-2.83338,1.90889-5.66687c1.73676-6.35275,3.65212-12.66289,5.17489-19.06655,3.7405-15.72944,7.3001-31.502,10.93244-47.25707q.941-2.83758,1.882-5.67493c1.3333-2.9651,2.66661-5.93008,4.08854-9.09236h10.19462l-.46864-.16q8.24116,1.0713,16.48247,2.143l-.46352-.15982c4.0424.76695,8.06539,1.66379,12.132,2.267,4.78742.71018,6.7615,3.30243,5.9978,8.04474l.15686-.46039q-2.06918,15.24716-4.13835,30.49393l.16407-.46808q-1.0908,7.22408-2.18172,14.448l.17212-.45672q-1.08805,7.2248-2.17611,14.44974l.15894-.45856q-1.06755,8.243-2.13546,16.486l.1615-.46185q-1.09172,7.21914-2.18343,14.43839l.15479-.4588q-1.07524,8.23806-2.15084,16.47576l.17322-.47028q-1.07433,8.24319-2.14852,16.4865l.15723-.459q-2.09316,15.2195-4.18657,30.43886l.16053-.46258q-1.0789,8.23384-2.15793,16.46758l.16066-.46845c-1.06035,4.012-2.12094,8.024-3.32094,12.56327-20.32491,0-40.39579.0713-60.46361-.14992C189.89437,441.45941,188.47622,439.3063,187.04709,438.14673Z" style="fill:#3e3e3e;stroke:#fff;stroke-width:1.4173228740692139px"/></g></svg>