<svg xmlns="http://www.w3.org/2000/svg" viewBox="0 0 640 480"><g id="JENGAV"><path d="M342.86035,151.14625v30.27443c3.27907,1.54336,33.29783.12594,33.56941.03124.56337-9.97762.31736-19.96773.17436-30.30567Z" style="fill:#3e3e3e;stroke:#fff;stroke-width:1.41732287406921px"/><rect x="263.21751" y="37.80037" width="79.51613" height="424.57036" style="fill:#3e3e3e;stroke:#fff;stroke-width:1.41732287406921px"/><line x1="342.73364" y1="37.80037" x2="342.73364" y2="462.37073" style="fill:none;stroke:#fff;stroke-width:1.4173228346456692px"/><line x1="329.48095" y1="37.80037" x2="329.48095" y2="462.37073" style="fill:none;stroke:#fff;stroke-width:1.4173228346456692px"/><line x1="316.22826" y1="37.80037" x2="316.22826" y2="462.37073" style="fill:none;stroke:#fff;stroke-width:1.4173228346456692px"/><line x1="302.97557" y1="37.80037" x2="302.97557" y2="462.37073" style="fill:none;stroke:#fff;stroke-width:1.4173228346456692px"/><line x1="289.72288" y1="37.80037" x2="289.72288" y2="462.37073" style="fill:none;stroke:#fff;stroke-width:1.4173228346456692px"/><line x1="276.4702" y1="37.80037" x2="276.4702" y2="462.37073" style="fill:none;stroke:#fff;stroke-width:1.4173228346456692px"/><line x1="263.21751" y1="37.80037" x2="263.21751" y2="462.37073" style="fill:none;stroke:#fff;stroke-width:1.4173228346456692px"/><line x1="342.73473" y1="462.37226" x2="263.227" y2="462.37152" style="fill:none;stroke:#fff;stroke-width:1.4173228346456692px"/><line x1="342.73473" y1="435.83677" x2="263.227" y2="435.83602" style="fill:none;stroke:#fff;stroke-width:1.4173228346456692px"/><line x1="342.73473" y1="409.30127" x2="263.227" y2="409.30053" style="fill:none;stroke:#fff;stroke-width:1.4173228346456692px"/><line x1="342.73473" y1="382.76577" x2="263.227" y2="382.76503" style="fill:none;stroke:#fff;stroke-width:1.4173228346456692px"/><line x1="342.73473" y1="356.23028" x2="263.227" y2="356.22954" style="fill:none;stroke:#fff;stroke-width:1.4173228346456692px"/><line x1="342.73473" y1="329.69478" x2="263.227" y2="329.69404" style="fill:none;stroke:#fff;stroke-width:1.4173228346456692px"/><line x1="342.73473" y1="303.15929" x2="263.227" y2="303.15855" style="fill:none;stroke:#fff;stroke-width:1.4173228346456692px"/><line x1="342.73473" y1="276.62379" x2="263.227" y2="276.62305" style="fill:none;stroke:#fff;stroke-width:1.4173228346456692px"/><line x1="342.73473" y1="250.08829" x2="263.227" y2="250.08755" style="fill:none;stroke:#fff;stroke-width:1.4173228346456692px"/><line x1="342.73473" y1="223.5528" x2="263.227" y2="223.55206" style="fill:none;stroke:#fff;stroke-width:1.4173228346456692px"/><line x1="342.73473" y1="197.0173" x2="263.227" y2="197.01656" style="fill:none;stroke:#fff;stroke-width:1.4173228346456692px"/><line x1="342.73473" y1="170.48181" x2="263.227" y2="170.48107" style="fill:none;stroke:#fff;stroke-width:1.4173228346456692px"/><line x1="342.73473" y1="143.94631" x2="263.227" y2="143.94557" style="fill:none;stroke:#fff;stroke-width:1.4173228346456692px"/><line x1="342.73473" y1="117.41082" x2="263.227" y2="117.41007" style="fill:none;stroke:#fff;stroke-width:1.4173228346456692px"/><line x1="342.73473" y1="90.87532" x2="263.227" y2="90.87458" style="fill:none;stroke:#fff;stroke-width:1.4173228346456692px"/><line x1="342.73473" y1="64.33982" x2="263.227" y2="64.33908" style="fill:none;stroke:#fff;stroke-width:1.4173228346456692px"/><line x1="342.73473" y1="37.80433" x2="263.227" y2="37.80359" style="fill:none;stroke:#fff;stroke-width:1.4173228346456692px"/></g></svg>